<svg width="14" height="14" viewBox="0 0 14 14" fill="none" xmlns="http://www.w3.org/2000/svg">
<g id="_Email Header">
<path id="@" d="M7.17104 14C6.0338 14 5.02133 13.8456 4.13364 13.5367C3.24595 13.2314 2.49552 12.7823 1.88233 12.1894C1.26915 11.6001 0.80213 10.8794 0.481278 10.0274C0.160426 9.17535 0 8.20616 0 7.11982C0 6.04767 0.160426 5.07493 0.481278 4.2016C0.805695 3.32826 1.27806 2.57918 1.89837 1.95436C2.51869 1.32598 3.27626 0.84316 4.17108 0.505896C5.06946 0.168632 6.09262 0 7.24056 0C8.30294 0 9.25123 0.154432 10.0854 0.463295C10.9232 0.772157 11.6327 1.21238 12.2138 1.78395C12.7984 2.35197 13.2423 3.02827 13.5453 3.81286C13.8519 4.59389 14.0034 5.45835 13.9998 6.40624C14.0034 7.05946 13.9464 7.65944 13.8287 8.20616C13.7111 8.75288 13.5257 9.23038 13.2726 9.63865C13.023 10.0434 12.695 10.3647 12.2886 10.6025C11.8822 10.8368 11.3902 10.97 10.8127 11.0019C10.3992 11.0339 10.0641 11.0037 9.80738 10.9114C9.55069 10.8191 9.35462 10.6824 9.21915 10.5013C9.08724 10.3167 9.00168 10.1019 8.96247 9.85698H8.8983C8.81273 10.07 8.64518 10.2635 8.39563 10.4374C8.14608 10.6078 7.84127 10.741 7.4812 10.8368C7.1247 10.9291 6.74502 10.9628 6.34217 10.938C5.9215 10.9131 5.52222 10.8155 5.14433 10.6451C4.77 10.4747 4.43667 10.228 4.14434 9.90491C3.85557 9.58184 3.62741 9.18245 3.45985 8.70673C3.29586 8.23101 3.21209 7.68074 3.20852 7.05591C3.21209 6.43819 3.29943 5.90034 3.47055 5.44237C3.64524 4.9844 3.87518 4.59921 4.16038 4.2868C4.44915 3.97439 4.77 3.72943 5.12294 3.55192C5.47587 3.37441 5.83059 3.26081 6.1871 3.21111C6.58994 3.15075 6.9714 3.15075 7.33147 3.21111C7.69154 3.27146 7.99456 3.36909 8.24055 3.50399C8.4901 3.6389 8.64518 3.78446 8.70578 3.94066H8.78065V3.34424H10.4544V8.54165C10.458 8.78661 10.5133 8.97654 10.6202 9.11145C10.7272 9.24636 10.8715 9.31381 11.0534 9.31381C11.2993 9.31381 11.5043 9.20553 11.6683 8.98897C11.8359 8.77241 11.9606 8.44047 12.0426 7.99315C12.1282 7.54583 12.171 6.97604 12.171 6.28376C12.171 5.61633 12.0819 5.03056 11.9036 4.52644C11.7289 4.01876 11.4829 3.58742 11.1657 3.23241C10.8519 2.87384 10.4865 2.58273 10.0694 2.35907C9.6523 2.13541 9.19954 1.97211 8.71113 1.86915C8.22629 1.7662 7.72719 1.71472 7.21382 1.71472C6.32613 1.71472 5.55074 1.84963 4.88765 2.11944C4.22455 2.3857 3.67197 2.76024 3.22991 3.24306C2.78785 3.72588 2.4563 4.29213 2.23527 4.9418C2.0178 5.58793 1.90729 6.29263 1.90372 7.05591C1.90729 7.8973 2.02493 8.64283 2.25666 9.29251C2.49195 9.93863 2.83776 10.4818 3.29408 10.922C3.7504 11.3622 4.31368 11.696 4.9839 11.9232C5.65413 12.1504 6.42417 12.264 7.29404 12.264C7.70401 12.264 8.10508 12.2338 8.49723 12.1734C8.88938 12.1166 9.2441 12.0456 9.56139 11.9604C9.87868 11.8788 10.1336 11.7989 10.3261 11.7208L10.8555 13.2651C10.6309 13.3929 10.3261 13.5119 9.94106 13.6219C9.55961 13.7355 9.12824 13.826 8.64696 13.8935C8.16925 13.9645 7.67728 14 7.17104 14ZM6.92506 9.186C7.35999 9.186 7.7058 9.10257 7.96248 8.93572C8.22272 8.76886 8.4081 8.52212 8.51862 8.19551C8.6327 7.86535 8.68618 7.45886 8.67905 6.97604C8.67548 6.55002 8.62022 6.18968 8.51327 5.89502C8.40989 5.5968 8.22985 5.37137 7.97317 5.21871C7.72006 5.06251 7.36712 4.98441 6.91436 4.98441C6.51864 4.98441 6.18175 5.06783 5.90368 5.23469C5.62917 5.40155 5.41883 5.63586 5.27267 5.93762C5.13007 6.23583 5.05698 6.5873 5.05342 6.99201C5.05698 7.36833 5.11759 7.72512 5.23524 8.06238C5.35288 8.39609 5.54717 8.66768 5.81812 8.87714C6.08906 9.08305 6.45804 9.186 6.92506 9.186Z" fill="#3C2723"/>
</g>
</svg>
