<svg width="14" height="14" viewBox="0 0 14 14" fill="none" xmlns="http://www.w3.org/2000/svg">
<g id="_Signal">
<g clip-path="url(#clip0_507_828)">
<path id="Vector" d="M5.31948 0.204354L5.47659 0.840762C4.85736 0.993804 4.2647 1.23918 3.71851 1.56865L3.38241 1.00583C3.9836 0.641755 4.6368 0.371489 5.31948 0.204354ZM8.68051 0.204354L8.52339 0.840762C9.14262 0.993804 9.73529 1.23918 10.2815 1.56865L10.6216 1.00583C10.0188 0.642075 9.36432 0.371843 8.68051 0.204354ZM1.00582 3.38043C0.642086 3.9825 0.371849 4.6363 0.204346 5.31948L0.840754 5.4766C0.993795 4.85737 1.23917 4.2647 1.56865 3.71852L1.00582 3.38043ZM0.655798 7C0.65575 6.68177 0.679683 6.364 0.727394 6.04937L0.0790528 5.94993C-0.0263509 6.64534 -0.0263509 7.35267 0.0790528 8.04809L0.727394 7.95063C0.679758 7.636 0.655825 7.31822 0.655798 7ZM10.6176 12.9922L10.2815 12.4313C9.73615 12.7611 9.1441 13.0065 8.52538 13.1592L8.6825 13.7956C9.36434 13.6269 10.0167 13.356 10.6176 12.9922ZM13.3442 7C13.3442 7.31822 13.3202 7.636 13.2726 7.95063L13.9209 8.04809C14.0263 7.35267 14.0263 6.64534 13.9209 5.94993L13.2726 6.04937C13.3203 6.364 13.3442 6.68177 13.3442 7ZM13.7956 8.67853L13.1592 8.52141C13.0066 9.14139 12.7612 9.73476 12.4313 10.2815L12.9942 10.6196C13.3583 10.017 13.6285 9.36246 13.7956 8.67853ZM7.95063 13.2726C7.32047 13.3681 6.67952 13.3681 6.04936 13.2726L5.95191 13.9209C6.64666 14.0264 7.35333 14.0264 8.04808 13.9209L7.95063 13.2726ZM12.1072 10.7628C11.7292 11.2754 11.2759 11.7279 10.7628 12.1052L11.1526 12.6342C11.7178 12.2181 12.2178 11.7201 12.6362 11.1565L12.1072 10.7628ZM10.7628 1.89282C11.276 2.27079 11.7292 2.72403 12.1072 3.23724L12.6362 2.84346C12.2193 2.27941 11.7206 1.7807 11.1565 1.36381L10.7628 1.89282ZM1.89282 3.23724C2.27079 2.72403 2.72402 2.27079 3.23723 1.89282L2.84345 1.36381C2.2794 1.7807 1.78069 2.27941 1.3638 2.84346L1.89282 3.23724ZM12.9942 3.38043L12.4313 3.71852C12.7611 4.26384 13.0065 4.8559 13.1592 5.47461L13.7956 5.3175C13.6281 4.63494 13.3579 3.9818 12.9942 3.38043ZM6.04936 0.727402C6.67952 0.631929 7.32047 0.631929 7.95063 0.727402L8.04808 0.0790611C7.35333 -0.0263537 6.64666 -0.0263537 5.95191 0.0790611L6.04936 0.727402ZM2.22892 12.8092L0.874563 13.1234L1.19078 11.7691L0.552382 11.6199L0.236166 12.9743C0.216381 13.0583 0.213345 13.1453 0.227231 13.2304C0.241117 13.3156 0.271653 13.3972 0.317093 13.4705C0.362532 13.5438 0.421984 13.6075 0.492046 13.6578C0.562108 13.7081 0.641406 13.7442 0.725405 13.7638C0.82364 13.7857 0.925486 13.7857 1.02372 13.7638L2.37808 13.4516L2.22892 12.8092ZM0.687618 11.0352L1.328 11.1824L1.54677 10.2437C1.2273 9.7078 0.989354 9.12735 0.840754 8.52141L0.204346 8.67853C0.347494 9.25853 0.564029 9.81791 0.848709 10.3431L0.687618 11.0352ZM3.75033 12.4552L2.81163 12.674L2.96079 13.3144L3.65089 13.1533C4.17572 13.4388 4.73521 13.6554 5.3155 13.7976L5.47261 13.1612C4.86857 13.0107 4.29017 12.7714 3.7563 12.4512L3.75033 12.4552ZM6.99999 1.3121C3.85773 1.31409 1.31408 3.86171 1.31408 7.00199C1.31581 8.07158 1.61836 9.11911 2.18716 10.0249L1.64024 12.3597L3.97308 11.8128C6.63207 13.4854 10.1442 12.6879 11.8168 10.0309C13.4894 7.37389 12.6939 3.86171 10.0369 2.18716C9.12724 1.61515 8.07451 1.31181 6.99999 1.3121Z" fill="#3C2723"/>
</g>
</g>
<defs>
<clipPath id="clip0_507_828">
<rect width="14" height="14" rx="6" fill="white"/>
</clipPath>
</defs>
</svg>
