<svg width="14" height="14" viewBox="0 0 14 14" fill="none" xmlns="http://www.w3.org/2000/svg">
<g id="_Telegram">
<rect width="14" height="14" rx="7" fill="#3C2723"/>
<path id="Vector" fill-rule="evenodd" clip-rule="evenodd" d="M3.16859 6.9261C5.20924 6.03702 6.56999 5.45089 7.25084 5.1677C9.19481 4.35913 9.59876 4.21868 9.86204 4.21404C9.91995 4.21302 10.0494 4.22737 10.1333 4.29542C10.2041 4.35289 10.2236 4.43051 10.2329 4.48499C10.2422 4.53947 10.2538 4.66358 10.2446 4.76056C10.1393 5.86742 9.68345 8.55349 9.45155 9.7932C9.35343 10.3178 9.16022 10.4936 8.97317 10.5109C8.56666 10.5483 8.25798 10.2422 7.86427 9.98413C7.24817 9.58027 6.90012 9.32887 6.3021 8.93478C5.61098 8.47935 6.059 8.22903 6.45287 7.81994C6.55595 7.71288 8.34701 6.08378 8.38168 5.93599C8.38601 5.91751 8.39004 5.84861 8.34911 5.81223C8.30818 5.77585 8.24777 5.78829 8.20417 5.79819C8.14238 5.81221 7.15817 6.46274 5.25153 7.74977C4.97217 7.94161 4.71912 8.03507 4.49241 8.03018C4.24247 8.02478 3.7617 7.88886 3.40429 7.77268C2.96591 7.63018 2.6175 7.55484 2.64784 7.31283C2.66364 7.18678 2.83723 7.05787 3.16859 6.9261Z" fill="#EEE0DC"/>
</g>
</svg>
